<?xml version="1.0" standalone="no"?>
<!DOCTYPE svg PUBLIC "-//W3C//DTD SVG 20010904//EN"
 "http://www.w3.org/TR/2001/REC-SVG-20010904/DTD/svg10.dtd">
<svg version="1.0" xmlns="http://www.w3.org/2000/svg"
 width="584.000000pt" height="584.000000pt" viewBox="0 0 584.000000 584.000000"
 preserveAspectRatio="xMidYMid meet">

<g transform="translate(0.000000,584.000000) scale(0.100000,-0.100000)"
fill="#000000" stroke="none">
<path d="M2765 4808 c-87 -150 -290 -498 -450 -773 -160 -275 -308 -530 -329
-568 l-38 -67 612 2 613 3 16 30 c71 132 277 475 285 475 6 -1 103 -159 216
-353 112 -194 289 -498 393 -677 301 -518 347 -598 347 -604 0 -3 -139 -6
-310 -6 l-310 0 -13 22 c-24 40 -150 257 -291 501 l-138 237 -820 -2 -820 -3
-52 -90 c-29 -49 -91 -155 -138 -235 -207 -354 -308 -529 -308 -534 0 -3 197
-6 438 -6 l437 1 160 276 c88 152 175 303 193 335 l34 59 -64 -3 -63 -3 -56
-95 c-31 -52 -103 -176 -161 -275 l-105 -180 -311 -3 c-172 -1 -312 0 -312 3
0 7 27 53 225 393 l147 252 758 0 758 0 96 -167 c53 -93 134 -233 181 -313 47
-80 102 -175 123 -212 l37 -68 438 0 c240 0 437 3 437 6 0 6 -28 57 -115 204
-34 58 -105 179 -157 270 -53 91 -206 354 -340 585 -135 231 -305 524 -378
650 -73 127 -139 238 -145 248 -11 15 -37 -25 -196 -298 l-184 -315 -482 0
c-266 0 -483 2 -483 4 0 4 87 154 214 371 39 66 76 129 81 140 12 21 259 448
275 475 9 14 33 55 158 268 30 51 58 89 63 85 4 -4 62 -102 129 -218 67 -115
135 -231 151 -258 l28 -47 -209 -360 c-116 -198 -210 -361 -210 -362 0 -2 28
-2 63 0 l64 4 204 350 c112 192 205 356 207 363 2 7 -26 62 -61 121 -35 60
-124 213 -197 339 -155 268 -171 295 -174 295 -1 0 -74 -123 -161 -272z"/>
<path d="M2593 3220 l-51 -90 62 0 62 0 39 68 c21 37 45 77 52 88 13 21 12 21
-49 23 l-63 1 -52 -90z"/>
<path d="M1331 1768 c-101 -238 -162 -390 -158 -394 3 -3 14 -3 24 0 12 4 41
64 93 191 41 102 79 185 85 185 10 0 85 -171 85 -193 0 -4 -24 -7 -54 -7 -50
0 -66 -9 -66 -36 0 -2 33 -4 73 -4 l72 0 19 -48 c27 -69 44 -92 66 -92 11 0
20 1 20 3 0 1 -42 99 -93 217 -86 201 -94 215 -120 218 -24 3 -29 -2 -46 -40z"/>
<path d="M1670 1590 c0 -205 1 -221 18 -218 15 3 17 23 22 202 l5 199 85 -2
c100 -3 120 -15 120 -72 0 -31 -6 -42 -32 -63 -18 -13 -45 -28 -60 -31 -17 -4
-28 -14 -28 -24 0 -10 30 -60 68 -112 54 -76 72 -94 95 -96 15 -1 27 1 27 4 0
3 -30 46 -66 96 -36 49 -68 95 -70 101 -3 7 11 17 30 24 80 29 112 121 63 178
-23 27 -27 27 -150 31 l-127 3 0 -220z"/>
<path d="M2151 1803 c-62 -12 -95 -55 -92 -120 3 -80 32 -102 151 -110 41 -3
85 -11 96 -19 43 -26 38 -98 -9 -129 -28 -18 -157 -22 -199 -6 -25 9 -28 8
-28 -9 0 -27 54 -40 149 -36 117 4 161 37 161 122 0 50 -24 90 -61 103 -18 6
-65 11 -105 11 -67 0 -74 2 -94 27 -29 37 -24 89 11 115 29 22 112 28 192 15
44 -8 48 -7 45 10 -2 12 -16 20 -43 25 -44 7 -136 8 -174 1z"/>
<path d="M2536 1605 c-48 -113 -89 -211 -92 -219 -3 -9 2 -13 18 -12 18 1 28
14 49 66 15 36 50 123 79 193 29 71 56 125 61 120 7 -7 89 -191 89 -200 0 -2
-26 -3 -59 -3 -50 0 -59 -3 -64 -20 -5 -19 0 -20 68 -20 l73 0 28 -70 c23 -60
30 -69 50 -68 13 1 24 3 24 4 0 3 -82 198 -135 322 -44 103 -50 112 -75 112
-26 0 -31 -10 -114 -205z"/>
<path d="M2945 1798 c-3 -7 -4 -106 -3 -218 3 -185 5 -205 20 -208 16 -3 18
13 20 200 l3 202 23 -1 c12 0 50 -1 85 -2 78 -1 101 -16 101 -65 0 -44 -30
-78 -84 -96 -22 -7 -40 -20 -40 -27 0 -8 31 -58 69 -111 61 -85 73 -97 100
-98 l31 -2 -22 32 c-12 17 -44 60 -70 95 -26 35 -48 69 -48 75 0 6 19 19 41
30 50 23 74 58 73 109 -1 28 -9 46 -28 66 -25 25 -32 26 -146 30 -95 2 -121 0
-125 -11z"/>
<path d="M3401 1597 c-50 -117 -91 -216 -91 -221 0 -4 10 -6 22 -4 18 2 35 35
97 187 42 102 81 186 87 188 11 4 84 -159 84 -184 0 -9 -18 -13 -54 -13 -37 0
-56 -4 -59 -14 -9 -22 2 -26 73 -26 l67 0 27 -69 c24 -59 32 -68 53 -68 18 0
23 4 18 16 -3 9 -45 107 -92 219 -82 191 -88 202 -113 202 -26 0 -32 -11 -119
-213z"/>
<path d="M3810 1590 c0 -213 1 -220 20 -220 19 0 20 7 20 180 0 99 4 180 8
180 5 0 66 -77 137 -170 131 -175 138 -182 168 -187 16 -3 17 13 17 218 0 205
-1 220 -17 217 -16 -3 -19 -22 -23 -183 l-5 -180 -139 183 c-111 147 -143 182
-162 182 l-24 0 0 -220z"/>
<path d="M4357 1603 c-48 -114 -90 -213 -93 -219 -3 -7 5 -11 19 -11 21 0 31
18 101 189 43 104 83 187 89 185 9 -3 87 -178 87 -194 0 -2 -27 -3 -60 -3 -53
0 -60 -2 -60 -20 0 -17 8 -19 71 -22 l71 -3 27 -64 c20 -48 33 -65 49 -68 28
-4 28 1 -7 83 -16 38 -56 132 -88 209 -56 132 -61 140 -89 143 -29 3 -29 2
-117 -205z"/>
</g>
</svg>
